<mxfile host="app.diagrams.net" agent="Mozilla/5.0 (Windows NT 10.0; Win64; x64) AppleWebKit/537.36 (KHTML, like Gecko) Chrome/131.0.0.0 Safari/537.36" version="25.0.1">
  <diagram name="Page-1" id="4rm_w3GbS4QPZRmgDqCC">
    <mxGraphModel dx="1687" dy="875" grid="1" gridSize="10" guides="1" tooltips="1" connect="1" arrows="1" fold="1" page="1" pageScale="1" pageWidth="827" pageHeight="1169" math="0" shadow="0">
      <root>
        <mxCell id="0" />
        <mxCell id="1" parent="0" />
        <mxCell id="zmhzkxxj4Uhy-0csrFuB-2" value="" style="ellipse;whiteSpace=wrap;html=1;aspect=fixed;" vertex="1" parent="1">
          <mxGeometry x="370" y="60" width="20" height="20" as="geometry" />
        </mxCell>
        <mxCell id="zmhzkxxj4Uhy-0csrFuB-3" value="User is Registered" style="shape=note;whiteSpace=wrap;html=1;backgroundOutline=1;darkOpacity=0.05;" vertex="1" parent="1">
          <mxGeometry x="50" y="30" width="170" height="70" as="geometry" />
        </mxCell>
        <mxCell id="zmhzkxxj4Uhy-0csrFuB-10" style="edgeStyle=orthogonalEdgeStyle;rounded=0;orthogonalLoop=1;jettySize=auto;html=1;entryX=0.5;entryY=0;entryDx=0;entryDy=0;" edge="1" parent="1" source="zmhzkxxj4Uhy-0csrFuB-4" target="zmhzkxxj4Uhy-0csrFuB-5">
          <mxGeometry relative="1" as="geometry" />
        </mxCell>
        <mxCell id="zmhzkxxj4Uhy-0csrFuB-4" value="USER ENTERS LOGIN USER AND PASSWORD" style="rounded=0;whiteSpace=wrap;html=1;" vertex="1" parent="1">
          <mxGeometry x="320" y="160" width="120" height="60" as="geometry" />
        </mxCell>
        <mxCell id="zmhzkxxj4Uhy-0csrFuB-8" style="edgeStyle=orthogonalEdgeStyle;rounded=0;orthogonalLoop=1;jettySize=auto;html=1;entryX=0;entryY=0.5;entryDx=0;entryDy=0;" edge="1" parent="1" source="zmhzkxxj4Uhy-0csrFuB-5" target="zmhzkxxj4Uhy-0csrFuB-7">
          <mxGeometry relative="1" as="geometry" />
        </mxCell>
        <mxCell id="zmhzkxxj4Uhy-0csrFuB-11" style="edgeStyle=orthogonalEdgeStyle;rounded=0;orthogonalLoop=1;jettySize=auto;html=1;" edge="1" parent="1" source="zmhzkxxj4Uhy-0csrFuB-5">
          <mxGeometry relative="1" as="geometry">
            <mxPoint x="380" y="460" as="targetPoint" />
          </mxGeometry>
        </mxCell>
        <mxCell id="zmhzkxxj4Uhy-0csrFuB-5" value="CORRECT&amp;nbsp;&lt;div&gt;LOGIN USER&amp;nbsp;&lt;/div&gt;&lt;div&gt;AND&amp;nbsp;&lt;/div&gt;&lt;div&gt;PASSWORD?&lt;/div&gt;" style="rhombus;whiteSpace=wrap;html=1;" vertex="1" parent="1">
          <mxGeometry x="305" y="260" width="150" height="150" as="geometry" />
        </mxCell>
        <mxCell id="zmhzkxxj4Uhy-0csrFuB-9" style="edgeStyle=orthogonalEdgeStyle;rounded=0;orthogonalLoop=1;jettySize=auto;html=1;entryX=1;entryY=0.5;entryDx=0;entryDy=0;" edge="1" parent="1" source="zmhzkxxj4Uhy-0csrFuB-7" target="zmhzkxxj4Uhy-0csrFuB-4">
          <mxGeometry relative="1" as="geometry">
            <Array as="points">
              <mxPoint x="620" y="190" />
            </Array>
          </mxGeometry>
        </mxCell>
        <mxCell id="zmhzkxxj4Uhy-0csrFuB-7" value="INVALID LOGIN USER/PASSWORD" style="rounded=0;whiteSpace=wrap;html=1;" vertex="1" parent="1">
          <mxGeometry x="560" y="305" width="120" height="60" as="geometry" />
        </mxCell>
        <mxCell id="zmhzkxxj4Uhy-0csrFuB-14" style="edgeStyle=orthogonalEdgeStyle;rounded=0;orthogonalLoop=1;jettySize=auto;html=1;entryX=0.5;entryY=0;entryDx=0;entryDy=0;" edge="1" parent="1" source="zmhzkxxj4Uhy-0csrFuB-12" target="zmhzkxxj4Uhy-0csrFuB-13">
          <mxGeometry relative="1" as="geometry" />
        </mxCell>
        <mxCell id="zmhzkxxj4Uhy-0csrFuB-12" value="USER SUCCESSFULLY LOGS IN" style="rounded=0;whiteSpace=wrap;html=1;" vertex="1" parent="1">
          <mxGeometry x="320" y="460" width="120" height="60" as="geometry" />
        </mxCell>
        <mxCell id="zmhzkxxj4Uhy-0csrFuB-16" style="edgeStyle=orthogonalEdgeStyle;rounded=0;orthogonalLoop=1;jettySize=auto;html=1;" edge="1" parent="1" source="zmhzkxxj4Uhy-0csrFuB-13">
          <mxGeometry relative="1" as="geometry">
            <mxPoint x="380" y="710" as="targetPoint" />
          </mxGeometry>
        </mxCell>
        <mxCell id="zmhzkxxj4Uhy-0csrFuB-13" value="RMS DISPLAYED" style="rounded=0;whiteSpace=wrap;html=1;" vertex="1" parent="1">
          <mxGeometry x="320" y="610" width="120" height="60" as="geometry" />
        </mxCell>
        <mxCell id="zmhzkxxj4Uhy-0csrFuB-17" value="DASHBOARD" style="rounded=0;whiteSpace=wrap;html=1;" vertex="1" parent="1">
          <mxGeometry x="320" y="720" width="120" height="60" as="geometry" />
        </mxCell>
        <mxCell id="zmhzkxxj4Uhy-0csrFuB-18" value="STALL TYPE" style="rounded=0;whiteSpace=wrap;html=1;" vertex="1" parent="1">
          <mxGeometry x="320" y="850" width="120" height="60" as="geometry" />
        </mxCell>
        <mxCell id="zmhzkxxj4Uhy-0csrFuB-19" value="STALLS" style="rounded=0;whiteSpace=wrap;html=1;" vertex="1" parent="1">
          <mxGeometry x="320" y="960" width="120" height="60" as="geometry" />
        </mxCell>
        <mxCell id="zmhzkxxj4Uhy-0csrFuB-20" value="RENTERS" style="rounded=0;whiteSpace=wrap;html=1;" vertex="1" parent="1">
          <mxGeometry x="320" y="1070" width="120" height="60" as="geometry" />
        </mxCell>
        <mxCell id="zmhzkxxj4Uhy-0csrFuB-21" value="PAYMENTS" style="rounded=0;whiteSpace=wrap;html=1;" vertex="1" parent="1">
          <mxGeometry x="320" y="1190" width="120" height="60" as="geometry" />
        </mxCell>
        <mxCell id="zmhzkxxj4Uhy-0csrFuB-22" value="REPORTS" style="rounded=0;whiteSpace=wrap;html=1;" vertex="1" parent="1">
          <mxGeometry x="320" y="1300" width="120" height="60" as="geometry" />
        </mxCell>
        <mxCell id="zmhzkxxj4Uhy-0csrFuB-23" value="USERS" style="rounded=0;whiteSpace=wrap;html=1;" vertex="1" parent="1">
          <mxGeometry x="320" y="1410" width="120" height="60" as="geometry" />
        </mxCell>
      </root>
    </mxGraphModel>
  </diagram>
</mxfile>
